# xmcd
#
# Track frame offsets:
#	150
#	15253
#	28484
#	46142
#	64042
#	77552
#	91211
#	108431
#	122626
#	136715
#	151502
#	168669
#	184716
#	198309
#
# Disc length: 2901 seconds
# Revision: 0
# Processed by: cddbd v1.5.2PL0 Copyright (c) Steve Scherf et al.
# Submitted via: dBpowerAMP V12.0
#
DISCID=a40b530e
DTITLE=Jon Wolfe - Any Night in Texas
DYEAR=2017
DGENRE=
TTITLE0=Girl Like You
TTITLE1=Time On My Hands
TTITLE2=Any Night In Texas
TTITLE3=Boots On A Dance Floor
TTITLE4=Baby This And Baby That
TTITLE5=A Country Boy's Life Well Lived
TTITLE6=Drink For Two (Featuring Sunny Sweeney)
TTITLE7=Airport Kiss
TTITLE8=Hang Your Hat On That
TTITLE9=Whenever I'm With You
TTITLE10=That's What A Song Will Do
TTITLE11=Crush Me
TTITLE12=We're On To Somethin'
TTITLE13=Long Song
EXTD=
EXTT0=
EXTT1=
EXTT2=
EXTT3=
EXTT4=
EXTT5=
EXTT6=
EXTT7=
EXTT8=
EXTT9=
EXTT10=
EXTT11=
EXTT12=
EXTT13=
PLAYORDER=
